<svg xmlns="http://www.w3.org/2000/svg" fill="none" aria-hidden="true" viewBox="0 0 24 24" role="img"><path vector-effect="non-scaling-stroke" stroke="var(--icon-color, #001e00)" stroke-linecap="round" stroke-linejoin="round" stroke-width="1.5" d="M9.97 7.989v7.01a2.004 2.004 0 002 2.004 1.998 1.998 0 002-2.004V5.495a3.49 3.49 0 00-2.146-3.229A3.476 3.476 0 0010.49 2v0c-.926 0-1.813.368-2.468 1.024A3.498 3.498 0 007 5.495v11.498c0 1.328.527 2.601 1.464 3.54A4.996 4.996 0 0012 22v0a4.996 4.996 0 003.536-1.467A5.011 5.011 0 0017 16.993V7.979"></path></svg>